<svg width="18" height="18" viewBox="0 0 18 18" fill="none" xmlns="http://www.w3.org/2000/svg">
<path fill-rule="evenodd" clip-rule="evenodd" d="M17.8882 8.9441C17.8882 13.8634 13.8634 17.8882 8.9441 17.8882C4.02485 17.8882 0 13.8634 0 8.9441C0 4.02485 4.02485 0 8.9441 0C13.8634 0 17.8882 4.02485 17.8882 8.9441Z" fill="url(#paint0_linear_1471_1123)"/>
<path fill-rule="evenodd" clip-rule="evenodd" d="M17.8882 8.9441C17.8882 13.8634 13.8634 17.8882 8.9441 17.8882C4.02485 17.8882 0 13.8634 0 8.9441C0 4.02485 4.02485 0 8.9441 0C13.8634 0 17.8882 4.02485 17.8882 8.9441Z" fill="url(#paint1_radial_1471_1123)"/>
<path fill-rule="evenodd" clip-rule="evenodd" d="M17.8882 8.9441C17.8882 13.8634 13.8634 17.8882 8.9441 17.8882C4.02485 17.8882 0 13.8634 0 8.9441C0 4.02485 4.02485 0 8.9441 0C13.8634 0 17.8882 4.02485 17.8882 8.9441Z" fill="url(#paint2_radial_1471_1123)"/>
<path fill-rule="evenodd" clip-rule="evenodd" d="M17.8882 8.9441C17.8882 13.8634 13.8634 17.8882 8.9441 17.8882C4.02485 17.8882 0 13.8634 0 8.9441C0 4.02485 4.02485 0 8.9441 0C13.8634 0 17.8882 4.02485 17.8882 8.9441Z" fill="url(#paint3_radial_1471_1123)"/>
<path fill-rule="evenodd" clip-rule="evenodd" d="M17.8882 8.9441C17.8882 13.8634 13.8634 17.8882 8.9441 17.8882C4.02485 17.8882 0 13.8634 0 8.9441C0 4.02485 4.02485 0 8.9441 0C13.8634 0 17.8882 4.02485 17.8882 8.9441Z" fill="url(#paint4_radial_1471_1123)"/>
<path fill-rule="evenodd" clip-rule="evenodd" d="M17.8882 8.9441C17.8882 13.8634 13.8634 17.8882 8.9441 17.8882C4.02485 17.8882 0 13.8634 0 8.9441C0 4.02485 4.02485 0 8.9441 0C13.8634 0 17.8882 4.02485 17.8882 8.9441Z" fill="url(#paint5_radial_1471_1123)"/>
<path fill-rule="evenodd" clip-rule="evenodd" d="M10.8446 6.59628C10.7327 6.26088 7.15511 6.26088 7.04331 6.59628C6.93151 6.93168 7.71412 7.37889 8.94393 7.37889C10.1737 7.37889 10.9564 6.93168 10.8446 6.59628Z" fill="url(#paint6_linear_1471_1123)"/>
<path fill-rule="evenodd" clip-rule="evenodd" d="M6.70818 4.58377C6.70818 5.36638 6.26097 5.58998 5.59017 5.70178C4.91936 5.81359 4.36035 5.47818 4.36035 4.58377C4.36035 3.91296 4.69576 3.01855 5.59017 3.01855C6.37277 3.01855 6.70818 3.91296 6.70818 4.58377Z" fill="url(#paint7_radial_1471_1123)"/>
<path fill-rule="evenodd" clip-rule="evenodd" d="M5.47831 3.46569C5.59011 3.57749 5.59011 3.91289 5.36651 4.02469C5.2547 4.13649 5.0311 4.2483 4.9193 4.02469C4.8075 3.80109 4.8075 3.68929 4.9193 3.46569C5.1429 3.35389 5.36651 3.35389 5.47831 3.46569Z" fill="#4E506A"/>
<path fill-rule="evenodd" clip-rule="evenodd" d="M11.1802 4.58377C11.1802 5.36638 11.6274 5.58998 12.41 5.70178C13.0808 5.81359 13.6398 5.47818 13.6398 4.58377C13.6398 3.91296 13.3044 3.01855 12.41 3.01855C11.5156 3.01855 11.1802 3.91296 11.1802 4.58377Z" fill="url(#paint8_radial_1471_1123)"/>
<path fill-rule="evenodd" clip-rule="evenodd" d="M12.2982 3.46555C12.41 3.57735 12.2982 3.80096 12.1864 4.02456C12.0746 4.13636 11.851 4.13636 11.7392 4.02456C11.6274 3.91276 11.7392 3.68916 11.851 3.46555C12.0746 3.24195 12.1864 3.24195 12.2982 3.46555Z" fill="#4E506A"/>
<path fill-rule="evenodd" clip-rule="evenodd" d="M3.80143 2.34779C3.57783 2.5714 3.80143 2.9068 4.13684 2.795C4.80764 2.4596 6.14926 2.12419 7.26727 2.23599C7.60268 2.23599 7.71448 2.23599 7.60268 1.78879C7.60268 1.45338 7.15547 1.22978 6.26106 1.34158C4.91944 1.45338 4.02504 2.12419 3.80143 2.34779Z" fill="url(#paint9_radial_1471_1123)"/>
<path fill-rule="evenodd" clip-rule="evenodd" d="M11.6272 1.34158C10.7328 1.22978 10.2856 1.45338 10.2856 1.78879C10.1738 2.23599 10.2856 2.23599 10.621 2.23599C11.8508 2.12419 13.1924 2.4596 13.7514 2.795C14.1986 3.0186 14.3104 2.5714 14.0868 2.34779C13.8632 2.12419 12.9688 1.45338 11.6272 1.34158Z" fill="url(#paint10_radial_1471_1123)"/>
<path fill-rule="evenodd" clip-rule="evenodd" d="M10.8446 9.50329C8.4968 8.83248 7.71419 10.3977 7.71419 10.3977C7.71419 10.3977 7.9378 8.60888 5.58997 7.82627C3.35395 7.15546 2.01233 9.27968 1.90053 10.5095C1.67693 13.3045 4.13655 16.435 5.03096 17.553C5.14277 17.8884 5.47817 17.8884 5.81357 17.8884C7.15519 17.553 10.9564 16.3232 12.4098 13.8635C12.9689 12.6337 13.0807 10.1741 10.8446 9.50329Z" fill="url(#paint11_linear_1471_1123)"/>
<path fill-rule="evenodd" clip-rule="evenodd" d="M10.8446 9.50329C8.4968 8.83248 7.71419 10.3977 7.71419 10.3977C7.71419 10.3977 7.9378 8.60888 5.58997 7.82627C3.35395 7.15546 2.01233 9.27968 1.90053 10.5095C1.67693 13.3045 4.13655 16.435 5.03096 17.553C5.14277 17.8884 5.47817 17.8884 5.81357 17.8884C7.15519 17.553 10.9564 16.3232 12.4098 13.8635C12.9689 12.6337 13.0807 10.1741 10.8446 9.50329Z" fill="url(#paint12_radial_1471_1123)"/>
<path fill-rule="evenodd" clip-rule="evenodd" d="M10.8446 9.50329C8.4968 8.83248 7.71419 10.3977 7.71419 10.3977C7.71419 10.3977 7.9378 8.60888 5.58997 7.82627C3.35395 7.15546 2.01233 9.27968 1.90053 10.5095C1.67693 13.3045 4.13655 16.435 5.03096 17.553C5.14277 17.8884 5.47817 17.8884 5.81357 17.8884C7.15519 17.553 10.9564 16.3232 12.4098 13.8635C12.9689 12.6337 13.0807 10.1741 10.8446 9.50329Z" fill="url(#paint13_radial_1471_1123)"/>
<path fill-rule="evenodd" clip-rule="evenodd" d="M10.8446 9.50329C8.4968 8.83248 7.71419 10.3977 7.71419 10.3977C7.71419 10.3977 7.9378 8.60888 5.58997 7.82627C3.35395 7.15546 2.01233 9.27968 1.90053 10.5095C1.67693 13.3045 4.13655 16.435 5.03096 17.553C5.14277 17.8884 5.47817 17.8884 5.81357 17.8884C7.15519 17.553 10.9564 16.3232 12.4098 13.8635C12.9689 12.6337 13.0807 10.1741 10.8446 9.50329Z" fill="url(#paint14_radial_1471_1123)"/>
<path fill-rule="evenodd" clip-rule="evenodd" d="M10.8446 9.50329C8.4968 8.83248 7.71419 10.3977 7.71419 10.3977C7.71419 10.3977 7.9378 8.60888 5.58997 7.82627C3.35395 7.15546 2.01233 9.27968 1.90053 10.5095C1.67693 13.3045 4.13655 16.435 5.03096 17.553C5.14277 17.8884 5.47817 17.8884 5.81357 17.8884C7.15519 17.553 10.9564 16.3232 12.4098 13.8635C12.9689 12.6337 13.0807 10.1741 10.8446 9.50329Z" fill="url(#paint15_radial_1471_1123)"/>
<path fill-rule="evenodd" clip-rule="evenodd" d="M10.8446 9.50329C8.4968 8.83248 7.71419 10.3977 7.71419 10.3977C7.71419 10.3977 7.9378 8.60888 5.58997 7.82627C3.35395 7.15546 2.01233 9.27968 1.90053 10.5095C1.67693 13.3045 4.13655 16.435 5.03096 17.553C5.14277 17.8884 5.47817 17.8884 5.81357 17.8884C7.15519 17.553 10.9564 16.3232 12.4098 13.8635C12.9689 12.6337 13.0807 10.1741 10.8446 9.50329Z" fill="url(#paint16_radial_1471_1123)"/>
<path fill-rule="evenodd" clip-rule="evenodd" d="M10.8446 9.50329C8.4968 8.83248 7.71419 10.3977 7.71419 10.3977C7.71419 10.3977 7.9378 8.60888 5.58997 7.82627C3.35395 7.15546 2.01233 9.27968 1.90053 10.5095C1.67693 13.3045 4.13655 16.435 5.03096 17.553C5.14277 17.8884 5.47817 17.8884 5.81357 17.8884C7.15519 17.553 10.9564 16.3232 12.4098 13.8635C12.9689 12.6337 13.0807 10.1741 10.8446 9.50329Z" fill="url(#paint17_radial_1471_1123)"/>
<mask id="mask0_1471_1123" style="mask-type:luminance" maskUnits="userSpaceOnUse" x="0" y="0" width="18" height="18">
<path fill-rule="evenodd" clip-rule="evenodd" d="M17.8882 8.9441C17.8882 13.8634 13.8634 17.8882 8.9441 17.8882C4.02485 17.8882 0 13.8634 0 8.9441C0 4.02485 4.02485 0 8.9441 0C13.8634 0 17.8882 4.02485 17.8882 8.9441Z" fill="white"/>
</mask>
<g mask="url(#mask0_1471_1123)">
<path fill-rule="evenodd" clip-rule="evenodd" d="M1.45334 8.60792C0.894331 8.04891 -0.11188 7.71351 -0.223681 9.05512C-0.335483 10.0613 0.111722 11.8502 1.34154 12.8564C4.47197 15.316 7.267 13.9744 7.3788 12.1856C7.4906 10.8439 5.81359 10.9557 5.36638 10.9557V10.8439C5.47818 10.7321 5.70178 10.6203 5.81359 10.5085C6.26079 10.1731 6.03719 9.61413 5.47818 9.72593C5.36638 9.72593 4.02477 10.1731 3.13036 9.83773C2.23595 9.50233 2.12415 9.16692 1.45334 8.60792Z" fill="url(#paint18_radial_1471_1123)"/>
</g>
<path d="M15.9876 8.72054C16.323 8.04973 16.882 8.27333 17.2174 8.38514C17.6646 8.49694 18 8.83234 18 9.50315C18 11.1802 17.7764 12.7454 16.323 14.3106C13.7515 17.2174 9.39129 16.7702 8.94408 14.9814C8.60868 13.6398 10.1739 13.4162 10.7329 13.4162V13.3044C10.5093 13.1926 10.3975 13.0808 10.1739 12.969C9.72669 12.6336 9.83849 11.9628 10.3975 12.0746C11.0683 12.1864 11.9627 12.41 12.6335 12.2982C14.7577 12.0746 15.0932 10.3976 15.9876 8.72054Z" fill="url(#paint19_radial_1471_1123)"/>
<defs>
<linearGradient id="paint0_linear_1471_1123" x1="8.93516" y1="17.0027" x2="8.93516" y2="1.33267" gradientUnits="userSpaceOnUse">
<stop stop-color="#F28A2D"/>
<stop offset="1" stop-color="#FDE86F"/>
</linearGradient>
<radialGradient id="paint1_radial_1471_1123" cx="0" cy="0" r="1" gradientUnits="userSpaceOnUse" gradientTransform="translate(8.93516 8.93516) scale(8.9441)">
<stop stop-color="#F28A2D" stop-opacity="0"/>
<stop offset="1" stop-color="#F08423" stop-opacity="0.34"/>
</radialGradient>
<radialGradient id="paint2_radial_1471_1123" cx="0" cy="0" r="1" gradientUnits="userSpaceOnUse" gradientTransform="translate(1.93493 9.30255) rotate(24.1484) scale(1.8067 1.39747)">
<stop stop-color="#F28A2D" stop-opacity="0.5"/>
<stop offset="1" stop-color="#F28A2D" stop-opacity="0"/>
</radialGradient>
<radialGradient id="paint3_radial_1471_1123" cx="0" cy="0" r="1" gradientUnits="userSpaceOnUse" gradientTransform="translate(13.2683 13.1631) rotate(-38.243) scale(5.06237 1.84174)">
<stop stop-color="#F28A2D" stop-opacity="0.5"/>
<stop offset="1" stop-color="#F28A2D" stop-opacity="0"/>
</radialGradient>
<radialGradient id="paint4_radial_1471_1123" cx="0" cy="0" r="1" gradientUnits="userSpaceOnUse" gradientTransform="translate(5.69483 2.2693) rotate(-10.3559) scale(1.91404 0.380623)">
<stop stop-color="#D45F00" stop-opacity="0.15"/>
<stop offset="1" stop-color="#F28A2D" stop-opacity="0"/>
</radialGradient>
<radialGradient id="paint5_radial_1471_1123" cx="0" cy="0" r="1" gradientUnits="userSpaceOnUse" gradientTransform="translate(12.1768 2.40042) rotate(11.5352) scale(1.89614 0.377081)">
<stop stop-color="#D45F00" stop-opacity="0.15"/>
<stop offset="1" stop-color="#D45F00" stop-opacity="0"/>
</radialGradient>
<linearGradient id="paint6_linear_1471_1123" x1="8.94363" y1="5.93589" x2="8.94363" y2="7.52784" gradientUnits="userSpaceOnUse">
<stop stop-color="#482314"/>
<stop offset="1" stop-color="#9A4111"/>
</linearGradient>
<radialGradient id="paint7_radial_1471_1123" cx="0" cy="0" r="1" gradientUnits="userSpaceOnUse" gradientTransform="translate(5.5821 4.77511) rotate(-90) scale(2.07909 2.07918)">
<stop stop-color="#3B446B"/>
<stop offset="0.688" stop-color="#202340"/>
</radialGradient>
<radialGradient id="paint8_radial_1471_1123" cx="0" cy="0" r="1" gradientUnits="userSpaceOnUse" gradientTransform="translate(12.3058 4.77383) rotate(-90) scale(2.07909 2.07918)">
<stop stop-color="#3B446B"/>
<stop offset="0.688" stop-color="#202340"/>
</radialGradient>
<radialGradient id="paint9_radial_1471_1123" cx="0" cy="0" r="1" gradientUnits="userSpaceOnUse" gradientTransform="translate(5.59194 1.91249) rotate(-104.427) scale(0.453311 2.10128)">
<stop stop-color="#E38200"/>
<stop offset="1" stop-color="#CD6700"/>
</radialGradient>
<radialGradient id="paint10_radial_1471_1123" cx="0" cy="0" r="1" gradientUnits="userSpaceOnUse" gradientTransform="translate(12.2251 1.71192) rotate(-79.0815) scale(0.477622 2.83441)">
<stop stop-color="#E38200"/>
<stop offset="1" stop-color="#CD6700"/>
</radialGradient>
<linearGradient id="paint11_linear_1471_1123" x1="7.55026" y1="10.8983" x2="5.27991" y2="18.2124" gradientUnits="userSpaceOnUse">
<stop stop-color="#F34462"/>
<stop offset="1" stop-color="#CC0820"/>
</linearGradient>
<radialGradient id="paint12_radial_1471_1123" cx="0" cy="0" r="1" gradientUnits="userSpaceOnUse" gradientTransform="translate(9.88374 12.2257) rotate(20.3927) scale(2.94363 2.94364)">
<stop stop-color="#FF7091" stop-opacity="0.7"/>
<stop offset="1" stop-color="#FE6D8E" stop-opacity="0"/>
</radialGradient>
<radialGradient id="paint13_radial_1471_1123" cx="0" cy="0" r="1" gradientUnits="userSpaceOnUse" gradientTransform="translate(4.77186 10.743) rotate(20.3927) scale(2.94363 2.94364)">
<stop stop-color="#FF7091" stop-opacity="0.7"/>
<stop offset="1" stop-color="#FE6D8E" stop-opacity="0"/>
</radialGradient>
<radialGradient id="paint14_radial_1471_1123" cx="0" cy="0" r="1" gradientUnits="userSpaceOnUse" gradientTransform="translate(4.4545 13.1507) rotate(101.61) scale(2.52744 3.4803)">
<stop stop-color="#9C0600"/>
<stop offset="1" stop-color="#9C0600" stop-opacity="0"/>
</radialGradient>
<radialGradient id="paint15_radial_1471_1123" cx="0" cy="0" r="1" gradientUnits="userSpaceOnUse" gradientTransform="translate(12.761 13.4082) rotate(30.6331) scale(1.52256 1.91087)">
<stop stop-color="#9C0600" stop-opacity="0.5"/>
<stop offset="1" stop-color="#9C0600" stop-opacity="0"/>
</radialGradient>
<radialGradient id="paint16_radial_1471_1123" cx="0" cy="0" r="1" gradientUnits="userSpaceOnUse" gradientTransform="translate(2.29936 10.1891) rotate(-20.1593) scale(1.31956 1.70046)">
<stop stop-color="#9C0600" stop-opacity="0.5"/>
<stop offset="1" stop-color="#9C0600" stop-opacity="0"/>
</radialGradient>
<radialGradient id="paint17_radial_1471_1123" cx="0" cy="0" r="1" gradientUnits="userSpaceOnUse" gradientTransform="translate(9.98936 15.5569) rotate(34.0715) scale(1.77633 1.92386)">
<stop stop-color="#9C0600" stop-opacity="0.999"/>
<stop offset="1" stop-color="#9C0600" stop-opacity="0"/>
</radialGradient>
<radialGradient id="paint18_radial_1471_1123" cx="0" cy="0" r="1" gradientUnits="userSpaceOnUse" gradientTransform="translate(-0.0905091 8.34982) rotate(36.5187) scale(7.43311 7.43303)">
<stop stop-color="#EDA83A"/>
<stop offset="1" stop-color="#FFDC5E"/>
</radialGradient>
<radialGradient id="paint19_radial_1471_1123" cx="0" cy="0" r="1" gradientUnits="userSpaceOnUse" gradientTransform="translate(17.5014 8.6501) scale(9.88994)">
<stop stop-color="#EDA83A"/>
<stop offset="1" stop-color="#FFDC5E"/>
</radialGradient>
</defs>
</svg>
