<svg width="19" height="17" viewBox="0 0 19 17" fill="none" xmlns="http://www.w3.org/2000/svg">
<path fill-rule="evenodd" clip-rule="evenodd" d="M0 1.41667C0 1.04094 0.142984 0.680609 0.397498 0.414932C0.652012 0.149256 0.997206 0 1.35714 0H17.6429C18.0028 0 18.348 0.149256 18.6025 0.414932C18.857 0.680609 19 1.04094 19 1.41667C19 1.79239 18.857 2.15272 18.6025 2.4184C18.348 2.68408 18.0028 2.83333 17.6429 2.83333H1.35714C0.997206 2.83333 0.652012 2.68408 0.397498 2.4184C0.142984 2.15272 0 1.79239 0 1.41667ZM0 8.5C0 8.12428 0.142984 7.76394 0.397498 7.49827C0.652012 7.23259 0.997206 7.08333 1.35714 7.08333H17.6429C18.0028 7.08333 18.348 7.23259 18.6025 7.49827C18.857 7.76394 19 8.12428 19 8.5C19 8.87572 18.857 9.23606 18.6025 9.50173C18.348 9.76741 18.0028 9.91667 17.6429 9.91667H1.35714C0.997206 9.91667 0.652012 9.76741 0.397498 9.50173C0.142984 9.23606 0 8.87572 0 8.5ZM8.14286 15.5833C8.14286 15.2076 8.28584 14.8473 8.54035 14.5816C8.79487 14.3159 9.14006 14.1667 9.5 14.1667H17.6429C18.0028 14.1667 18.348 14.3159 18.6025 14.5816C18.857 14.8473 19 15.2076 19 15.5833C19 15.9591 18.857 16.3194 18.6025 16.5851C18.348 16.8507 18.0028 17 17.6429 17H9.5C9.14006 17 8.79487 16.8507 8.54035 16.5851C8.28584 16.3194 8.14286 15.9591 8.14286 15.5833Z" fill="#073D55"/>
</svg>
