<svg width="28" height="24" viewBox="0 0 28 24" fill="none" xmlns="http://www.w3.org/2000/svg">
<path d="M4.55 0C3.34326 0 2.18595 0.513614 1.33266 1.42785C0.479373 2.34209 0 3.58207 0 4.875V19.125C0 20.4179 0.479373 21.6579 1.33266 22.5721C2.18595 23.4864 3.34326 24 4.55 24H23.45C24.0475 24 24.6392 23.8739 25.1912 23.6289C25.7432 23.3839 26.2448 23.0248 26.6673 22.5721C27.0898 22.1195 27.425 21.582 27.6537 20.9906C27.8823 20.3991 28 19.7652 28 19.125V4.875C28 4.23481 27.8823 3.60088 27.6537 3.00942C27.425 2.41796 27.0898 1.88054 26.6673 1.42785C26.2448 0.975169 25.7432 0.616079 25.1912 0.371088C24.6392 0.126096 24.0475 0 23.45 0H4.55ZM2.1 4.875C2.1 3.426 3.1976 2.25 4.55 2.25H23.45C24.8024 2.25 25.9 3.426 25.9 4.875V19.125C25.9 19.8212 25.6419 20.4889 25.1824 20.9812C24.7229 21.4734 24.0998 21.75 23.45 21.75H4.55C3.90022 21.75 3.27705 21.4734 2.81759 20.9812C2.35812 20.4889 2.1 19.8212 2.1 19.125V4.875ZM4.2 5.625C4.2 5.32663 4.31062 5.04048 4.50754 4.8295C4.70445 4.61853 4.97152 4.5 5.25 4.5H12.95C13.2285 4.5 13.4955 4.61853 13.6925 4.8295C13.8894 5.04048 14 5.32663 14 5.625C14 5.92337 13.8894 6.20952 13.6925 6.42049C13.4955 6.63147 13.2285 6.75 12.95 6.75H5.25C4.97152 6.75 4.70445 6.63147 4.50754 6.42049C4.31062 6.20952 4.2 5.92337 4.2 5.625ZM5.6 13.5C5.2287 13.5 4.8726 13.658 4.61005 13.9393C4.3475 14.2206 4.2 14.6022 4.2 15V18C4.2 18.3978 4.3475 18.7794 4.61005 19.0607C4.8726 19.342 5.2287 19.5 5.6 19.5H15.4C15.7713 19.5 16.1274 19.342 16.3899 19.0607C16.6525 18.7794 16.8 18.3978 16.8 18V15C16.8 14.6022 16.6525 14.2206 16.3899 13.9393C16.1274 13.658 15.7713 13.5 15.4 13.5H5.6ZM4.2 9.375C4.2 9.07663 4.31062 8.79048 4.50754 8.57951C4.70445 8.36853 4.97152 8.25 5.25 8.25H19.95C20.2285 8.25 20.4955 8.36853 20.6925 8.57951C20.8894 8.79048 21 9.07663 21 9.375C21 9.67337 20.8894 9.95952 20.6925 10.1705C20.4955 10.3815 20.2285 10.5 19.95 10.5H5.25C4.97152 10.5 4.70445 10.3815 4.50754 10.1705C4.31062 9.95952 4.2 9.67337 4.2 9.375Z" fill="#073D55"/>
</svg>
