<?xml version="1.0" encoding="UTF-8"?>
<svg id="Layer_1" data-name="Layer 1" xmlns="http://www.w3.org/2000/svg" xmlns:xlink="http://www.w3.org/1999/xlink" viewBox="0 0 267 249.01">
  <defs>
    <style>
      .cls-1, .cls-2 {
        opacity: .66;
      }

      .cls-1, .cls-3 {
        fill: #c5ccd5;
        stroke-width: 0px;
      }

      .cls-4 {
        fill: none;
        stroke: #f4f5fa;
        stroke-width: 4px;
      }

      .cls-5 {
        clip-path: url(#clippath);
      }
    </style>
    <clipPath id="clippath">
      <rect class="cls-4" x="35.5" y="30.01" width="198" height="197" rx="35.5" ry="35.5"/>
    </clipPath>
  </defs>
  <g>
    <g class="cls-2">
      <path class="cls-3" d="m263.7,74.72c-.45-.04-1.01-.24-1.29-.56-1.13-1.35-1.58-1.45-2.96-.32-.67.55-1.27,1.21-1.96,1.74-.29.22-.72.24-1.1.35.07-.41.03-.9.24-1.2.52-.74,1.24-1.35,1.73-2.1.38-.58,1-1.23.27-2.04-.69-.76-1.24-.83-2.15-.03-2.96,2.61-5.89,5.26-8.86,7.85-.67.59-1.45,1.05-2.17,1.56-.14-.15-.28-.29-.42-.44.54-.72,1.02-1.5,1.64-2.15,1.97-2.06,4.02-4.05,5.99-6.12.56-.58.95-1.32,1.54-2.16-2-.25-3.34.53-4.51,1.64-2.19,2.08-4.25,4.32-6.55,6.27-2.39,2.03-4.98,3.83-7.52,5.68-.77.56-1.5.11-1.53-.89-.02-.72.06-1.43.11-2.38-.87.48-1.57.87-2.35,1.29-.83-.99.1-1.92.1-2.94-.15-.09-.33-.23-.53-.31-1.5-.61-1.55-.79-.86-2.36.97-2.21,2.72-3.7,4.53-5.16.87-.7,1.79-3.93,1.39-4.94-.07-.18-.5-.31-.76-.3-1.51.04-3.03.13-4.54.17-.16,0-.42-.11-.47-.24-.36-.89-1.03-1.14-1.95-1.25-.91-.1-.47-.89-.4-1.38.31-2.08,1.36-3.7,3.42-4.92-.67-.18-1.08-.35-1.51-.41-1.73-.27-3.47-.5-5.2-.77-.25-.04-.51-.17-.71-.33-1.38-1.08-2.82-1.18-4.22-.15-1.22.9-2.47,1.79-3.53,2.86-.63.63-.92,1.6-1.43,2.57-.11-.1-.39-.35-.73-.67-.57.42-1.23.85-1.82,1.36-.2.17-.36.56-.31.79.05.19.45.28.68.43.26.17.5.35.75.53-.28.13-.64.44-.81.36-.77-.4-1.51-.89-2.21-1.4-.07-.05.09-.55.24-.77.83-1.17,1.66-2.34,2.57-3.44.46-.55.35-.9-.18-1.18-.76-.41-1.49-.35-2.24.17-3.17,2.18-6.36,4.32-9.82,6.35.12-.38.15-.85.39-1.13,3.13-3.59,6.2-7.24,9.47-10.71,2.59-2.75,5.49-5.2,7.67-8.33,1.98-2.86,1.42-4.8-1.83-5.94-.68-.24-1.35-.47-2.15-.74.1-1,.2-2.01.31-3.12-.73-.27-1.45-.61-2.21-.8-.57-.14-.81-.31-.57-.92.17-.42.28-.87.36-1.31.07-.36.06-.72.09-1.09-.44-.02-.93-.17-1.31-.03-1.27.49-2.51,1.06-3.74,1.65-1.35.65-2.65,1.57-3.99,2.2.66-.7,1.15-1.43,1.34-2.14-.78.04-3.4,1.69-5.46,3.25-3.77,1.09-6.66,3.65-9.89,5.67-1.08.67-2.19,1.31-3.53,2.1.37-1.48.98-2.41,1.93-3.16,1.19-.93,2.41-1.84,3.54-2.84.6-.53,1.04-1.25,1.42-2.02-4.37,1.78-7.45,5.4-11.51,7.98-.29-2.09-1.02-3.7-2.68-4.66.28-1.68,2.52-2.69,1.34-4.84-.59.39-1.14.75-1.69,1.12-.95.65-1.88.55-2.78-.3-.71-.67-.78-1.68-.21-2.59.14-.22.23-.47.37-.68.24-.36.5-.71.88-1.25v-1.12c-.41.29-.8.52-1.13.8-1.61,1.35-3.65.74-4.32-1.28-.16-.49-.45-.94-.81-1.65.21-.25.42-.52.65-.8h1.28s.02.03.04.04c.02-.01.03-.03.05-.04h1.1v-.91c.98-.82,1.97-1.64,2.95-2.45,2.31-1.9,4.73-3.69,6.9-5.74,1.55-1.46,2.74-3.3,4.17-4.9.75-.84,1.08-1.71.83-2.96-.82.29-1.6.56-2.46.87-.21-.88-.39-1.61-.62-2.55-1.18.55-2.31,1.08-3.44,1.61-.13-.15-.25-.3-.38-.45.52-.73.94-1.56,1.57-2.18,1.24-1.22,2.61-2.3,3.89-3.49.35-.32.56-.78.84-1.18-.08-.12-.16-.23-.23-.35-1.16.64-2.34,1.25-3.48,1.93-4.41,2.61-8.39,5.82-12.39,8.98-.55.43-1.21.73-1.84,1.1-.6-.92-.52-1.63.19-2.29,2.44-2.27,4.87-4.55,7.31-6.82.9-.84,1.81-1.69,2.71-2.53-.06-.11-.12-.21-.19-.32-.58.3-1.2.54-1.73.91-4.69,3.26-9.37,6.54-14.04,9.84-.75.53-1.45.57-2.22.13-.13-.07-.29-.1-.42-.18-1.33-.78-2.64-1.18-4.15-.33-1.04.59-2.19.43-3.22-.22-.85-.54-1.53-.4-2.37.2-4.64,3.34-8.72,7.32-12.69,11.39-3.49,3.58-7.22,6.84-11.08,9.99-.44.36-.88.72-1.31,1.09-1.08.92-2.17,1.77-3.68,1.89-.56.04-1.09.32-1.7.5-.71-.67-.85-1.35-.01-2.08.54-.47,1.11-.92,1.61-1.44.29-.3.46-.71.5-1.25-.64.36-1.32.67-1.92,1.08-.76.52-1.33.52-2.08-.14-.97-.85-1.81-1.62-1.74-3.08.04-.86-1.33-1.74-2.35-1.43-1.62.5-3.16,1.24-4.74,1.85-1.12.43-2.25.81-3.38,1.21-.1-.14-.19-.28-.29-.42.82-.91,1.65-1.82,2.74-3.02-.78.11-1.31.08-1.73.27-4.03,1.77-7.97,3.73-12.06,5.33-7.21,2.84-13.43,7.3-19.66,11.74-2.4,1.71-4.52,3.82-6.99,5.4-2.48,1.59-4.24,3.86-6.31,5.83-3.6,3.41-7.2,6.86-10.41,10.62-2.14,2.5-3.55,5.63-5.41,8.39-.02.03-.05.07-.07.11-.16.2-.34.4-.49.61-.11.14-.17.31-.23.49-1.36,2.13-2.52,4.34-3.14,6.83-.07.28-.17.62-.38.79-1.65,1.38-3.33,2.72-4.98,4.09-.28.24-.64.54-.7.86-.19,1.1-1.01,1.24-1.85,1.64-1.28.6-2.47,1.48-3.53,2.43-5.07,4.5-10.09,9.06-15.12,13.61-.56.51-1.16,1.04-.45,1.94,1.76-1.05,3.03-2.95,5.67-3.04-.75.93-1.29,1.62-1.85,2.3-.46.55-.98,1.05-1.39,1.63-.65.9-.6,2.13.14,2.94.2.22.66.33.99.31.67-.02,1.34-.17,2.27-.29-1,2.62-.13,4.81,1.03,7.22.95-.63,1.9-1.2,2.78-1.87,1.99-1.5,3.94-3.05,5.92-4.57.18-.14.4-.33.6-.32.76.03,1.82-.16,2.2.26.71.78-.32,1.29-.84,1.77-4.01,3.7-8.1,7.31-12.04,11.08-1.56,1.49-2.81,3.31-4.2,4.98.15.16.3.32.46.48,1.36-1.03,2.76-2.01,4.08-3.09,3.66-3,7.26-6.07,10.93-9.06.68-.55,1.52-.91,2.55-1.51-.19,1.52-.95,2.23-1.7,2.96-4.57,4.42-9.15,8.84-13.7,13.28-.99.96-1.68,2.04-1.85,3.53-.09.76-.95,1.46-1.53,2.13-1.83,2.13-3.64,4.27-5.55,6.33-1.19,1.28-2.48,2.48-3.86,3.56-.8.63-2,.8-2.13,2.07-1.25.02-4.75,3.06-5.21,4.67.62-.23,1.15-.3,1.52-.59,1.43-1.16,2.77-2.43,4.22-3.57,1.55-1.23,3.17-2.35,4.76-3.53.79-.59,1.55-1.22,2.35-1.79.46-.33.94-.66,1.47-.84.35-.12,1.04-.1,1.13.08.18.34.15.91-.02,1.28-.19.43-.6.78-.97,1.1-2.94,2.51-5.89,5.01-8.84,7.5-.32.27-.64.6-1.02.72-2.73.88-3.29,3.43-4.48,5.5.08.12.16.24.24.36,1.13-.62,2.36-1.1,3.36-1.88,2.87-2.22,5.56-4.7,8.5-6.82,2.13-1.53,4.54-2.65,6.83-3.96.1.1.19.2.29.3-.17.33-.27.75-.52.99-2.1,1.97-4.17,3.97-6.37,5.83-2.42,2.06-4.98,3.96-7.44,5.97-.56.46-.97,1.08-1.45,1.63.06.09.12.18.18.26.92-.28,1.84-.57,2.9-.9-.38.81-.67,1.44-1.11,2.37,6.72-3.13,12.14-7.76,18.23-11.31.87.75.26,1.37-.07,1.94-.96,1.63-1.94,3.25-2.95,4.84-.93,1.47-1.5,2.92-.37,4.55.71,1.02.73,2.13.29,3.23-.39.98.03,1.4.86,1.72,1.43.54,1.69,1.38.76,2.61-1.42,1.88-2.89,3.71-4.34,5.56-.25.32-.5.64-.99,1.26.64-.12,1.02-.09,1.25-.26,1.21-.92,2.34-1.93,3.57-2.81.66-.47,1.45-.76,2.18-1.13.12.09.24.18.36.27-.24.63-.36,1.33-.73,1.87-3.04,4.54-6.49,8.74-10.34,12.63-.43.44-.75,1-1.12,1.51.07.09.14.17.21.26.57-.37,1.19-.68,1.71-1.11,1.52-1.26,2.99-2.56,4.5-3.83.48-.41.88-.76,1.69-.63.6.09,1.34-.41,1.94-.78.78-.47,1.1-.29,1.41.53.49,1.31.99,2.58.19,3.57.33.89.61,1.5.8,2.15.16.55.38.85.96.54,1.26-.66,2.51-1.33,3.88-2.06-.42,1.35-.86,2.73-1.31,4.16,1.26,1.27,2.14,1.43,3.78.61,1.45-.73,1.63-.62,1.64,1.05.01,1.97,1.35,2.82,3.28,2.43,3.5-.72,6.25-2.83,9.22-4.57,2.58-1.5,5.05-3.13,7.18-5.24.68-.67,1.05-1.64,2.15-1.91.79-.19,1.51-.65,2.34-.85-1.41,3.34-4.67,5.12-6.55,8,.08.09.17.18.25.27,1.09-.81,2.24-1.55,3.26-2.44,5.8-5.05,11.56-10.14,17.35-15.19.73-.64,1.57-1.16,2.4-1.67.24-.15.61-.07.91-.09,0,.35.16.82,0,1.05-.65.88-1.25,1.94-2.14,2.46-2.34,1.35-3.91,3.46-5.75,5.3-2.37,2.37-4.71,4.78-7.02,7.21-.4.43-.45,1.19-.85,1.62-.59.64-1.3,1.2-2.05,1.65-.69.4-1.19.78-1.27,1.66-.06.68-.37,1.35-.68,2.4.75-.38,1.25-.52,1.61-.83,1.01-.86,1.99-1.77,2.94-2.69,1.53-1.49,2.99-3.06,4.56-4.52,4.29-3.99,8.62-7.95,12.96-11.89.42-.38.99-.59,1.69-1,.17,1.64-.62,2.6-1.47,3.39-2.72,2.53-5.52,4.96-8.27,7.45-.78.7-1.48,1.47-2.14,2.27-.19.14-.33.32-.43.54-.36.46-.7.93-1.03,1.42-1.37.38-1.38,1.93-2.36,2.56.72.05,1.7-.84,2.2-1.79.63-.48,1.26-.96,1.89-1.45.19-.11.36-.23.5-.38,5.9-4.53,11.78-9.04,17.66-13.55.12.05.23.11.35.16-.09.42-.12.87-.28,1.26-.3.73-.74,1.4-1,2.14-.84,2.37-2.62,3.55-4.96,4.1-.35.08-.7.43-.92.74-.34.49-.59,1.05-.85,1.59-.32.64-.66.9-1.44.52-.4-.19-1.16-.11-1.53.16-1.47,1.12-2.86,2.35-4.27,3.57-.22.19-.34.48-.6.86,1.95-.16,2.92-1.75,4.52-2.5.33.53.65,1.05,1.05,1.69,2.22-1.44,4.43-2.8,6.56-4.28,2.55-1.76,5.03-3.64,7.55-5.44.39-.28.86-.49,1.32-.64.28-.08.62.03.93.05-.03.34.08.81-.11,1-1.07,1.12-2.16,2.22-3.33,3.23-2.43,2.11-4.92,4.14-7.37,6.23-.37.31-.77.69-.94,1.12-1.05,2.82-3.57,4.11-5.77,5.76-.54.4-.97.94-1.31,1.58,7.58-4.15,14.63-9.06,21.97-14.15-.1,1.64-.2,3.13-.29,4.62-.01,0-.02,0-.03.01-.74.29-1.14.43-1.57.46-.11-.14-.22-.28-.33-.42-.14.13-.29.23-.4.36-.36-.07-.8-.18-1.45-.34-.12.67-.39,1.35-.32,2,0,.08,0,.16,0,.23-.2.11-.4.22-.62.32-2.38,1.05-4.32,2.75-5.83,4.78-1.91,2.57-4.41,4.45-6.77,6.51-1.65,1.44-3.3,2.9-4.9,4.39-.33.31-.48.82-.54.94-.89.6-1.57,1.03-2.21,1.51-1.59,1.2-3.16,2.43-4.73,3.65-.41-.62-.71-1.08-1.11-1.68-.34.68-.54,1.22-.85,1.68-.92,1.38-1.88,2.75-2.85,4.1-.48.67-.79,1.29-.28,2.1.17.27.11.73.05,1.09-.26,1.49.64,2.45,2.14,2.16.7-.13,1.36-.47,2.06-.64.34-.08.73,0,1.09.02-.12.32-.27.63-.34.96-.2.94-.42,1.88-.51,2.84-.01.15.61.47.96.52,2.09.29,4-.29,5.76-1.4,3.93-2.5,7.93-4.9,11.74-7.56,2.78-1.94,5.31-4.26,7.96-6.39.53-.42,1.14-.74,1.69-1.13.39-.28.91-.54,1.06-.93.41-1.09,1.21-1.36,2.23-1.4.99-.04,1.99-.12,2.98-.19,1.19-.08,1.72.59,1.26,1.68-.33.79-.81,1.53-1.21,2.29-.19.37-.37.74-.61,1.2.33.06.57.13.82.16,1.78.2,2.49,1.3,1.8,3-.57,1.4-1.35,2.71-1.94,4.1-.32.75-.69,1.58.29,2.53,1.58-2.1,3.14-4.17,4.71-6.25.52-.7,1.05-1.39,1.57-2.08.75-1,1.74-1.53,3.05-1.6-.11,1.91-1.07,3.42-2.08,4.91-1.46,2.12-2.93,4.24-4.4,6.36-1.22,1.76-1.17,2.51.25,4.12.17.19.33.4.51.61,1.97-.55,2.77-2.3,3.85-3.71,2.14-2.79,4.12-5.72,6.33-8.45.88-1.09,2.23-1.79,3.32-2.74,3.03-2.62,6.03-5.28,9.04-7.92.11-.1.25-.15.66-.15-.11.38-.12.87-.36,1.13-4.03,4.43-8.09,8.83-12.13,13.25-2.61,2.85-5.27,5.66-7.78,8.6-1.48,1.74-2.71,3.7-4.03,5.58-.25.35-.38.79-.57,1.19.08.09.16.18.24.27.59-.38,1.24-.7,1.77-1.16,3.95-3.47,7.87-6.99,11.83-10.46.5-.44,1.2-.66,1.8-.99.1.12.21.24.31.36-.38.52-.71,1.09-1.14,1.57-3.37,3.79-6.78,7.54-10.14,11.34-.83.93-1.51,1.99-2.25,3-.32.44-.47.76.25,1.12,1.8.9,1.83,1.02,3.27-.39,2.45-2.39,4.71-4.99,7.24-7.28,3.83-3.45,7.83-6.71,11.76-10.04.28-.23.65-.35.98-.52.1.06.21.13.31.19-.17.37-.24.84-.51,1.1-2.24,2.21-4.5,4.41-6.78,6.58-3.65,3.48-7.33,6.93-10.98,10.4-1.83,1.74-1.56,4.02-1.69,6.18.1.08.21.15.31.22.82-.68,1.65-1.35,2.46-2.04,6.88-5.89,13.63-11.93,20.67-17.61,5.61-4.52,10.7-9.57,16.01-14.4,5.71-5.19,11.69-10.1,17.58-15.1,5.31-4.5,10.67-8.94,16.02-13.39,1.75-1.46,3.51-2.9,5.3-4.31.49-.39,1.13-.6,1.66-.95,1.12-.74,2.21-1.51,3.31-2.27.3-.21.59-.43.88-.65.12.08.23.16.34.23-.33.61-.51,1.39-1,1.81-2.51,2.19-5.12,4.26-7.66,6.42-6.77,5.73-13.51,11.49-20.28,17.21-7.87,6.65-15.76,13.26-23.65,19.9-.7.59-1.3,1.3-2.05,1.8-1.3.88-1.77,1.89-.85,3.33,1.78.52,3.51.57,5.41-.1,2.1-.74,4.13.22,5.89,1.45,1.8,1.26,3.51,2.65,5.25,3.98.06.05.14.09.16.16.96,2.38,2.75,1.41,4.3.98,1.46-.41,2.86-.72,4.37-.35.34.09.85-.24,1.2-.49,4.77-3.45,9.04-7.48,13.25-11.57,1.58-1.53,3.22-3,5-4.65.09,1.41.12,2.69.3,3.94.07.48.39,1.11.78,1.33,2.52,1.37,5.09,2.64,7.64,3.95.14.07.28.12.43.14,1.81.28,2.73,1.36,3.02,3.14.12.74,2.06,1.32,3.24,1.14,3.97-.59,7.35-2.22,10.41-4.92,5.82-5.14,11.93-9.94,17.77-15.05,5.55-4.86,11.5-9.3,16.39-14.89,2.08-2.38,3.89-4.93,5.14-7.86.26-.61.24-.93-.43-1.34-1.09-.66-2.18-1.43-2.98-2.39-.54-.65-.85-1.73-.8-2.6.1-2.09-1.29-3.44-2.25-4.98-.45-.72-2.31-.57-3.3.14-3.45,2.47-6.85,5-10.31,7.45-3.25,2.29-6.55,4.5-9.82,6.77-.45.31-.88.69-1.22,1.12-.51.63-1.13.73-1.66.25-.57-.52-1.05-1.19-1.39-1.88-.13-.26.1-.9.36-1.13,6.99-6.22,14.02-12.41,21.02-18.62,2.27-2.01,4.47-4.1,6.72-6.14.5-.46,1.12-.79,1.61-1.26,1.08-1,1.6-2.25,1.68-3.74.03-.62.28-1.34.68-1.81,2.13-2.51,4.45-4.87,6.49-7.44,3.05-3.83,5.84-7.85,7.48-12.54.16-.47.3-.95.36-1.44.17-1.46-.22-2.15-1.67-2.41-1.38-.24-1.73-1.35-2.32-2.27-1.4-2.15-2.86-4.19-5.37-5.23-1.15-.48-2.1-.52-2.96.48-1.83,2.13-3.59,4.32-5.51,6.36-5.01,5.3-10,10.63-15.2,15.76-3.66,3.62-7.62,6.95-11.49,10.35-1.21,1.07-2.54,2-3.86,2.93-.34.25-.88.21-1.28.39-.47.21-.94.47-1.33.8-.37.32-.63.87-1.18.31-.48-.48-1.08-.99-.44-1.73.64-.75,1.26-1.52,2-2.16,6.38-5.54,12.84-10.99,19.15-16.61,2.9-2.59,5.51-5.51,8.26-8.28-.07-.13-.15-.25-.22-.38-.6.28-1.21.52-1.79.84-.96.51-1.89,1.07-2.83,1.6-.83-2.04.41-3.51,1.59-4.82,4.49-5,9.07-9.91,13.65-14.82.56-.6,1.26-1.11,1.98-1.53,1.58-.9,2.55-2.28,3.48-3.79.83-1.37,1.96-2.55,2.8-3.63-.63-.1-1.38-.26-2.13-.32-.26-.02-.57.12-.8.28-1.53,1.05-3.05,2.11-4.6,3.19-.77-.44-.95-.98-.43-1.76.95-1.42,1.86-2.87,2.78-4.3.22-.33.42-.67.72-1.16-1.47.03-2.44.72-3.45,1.37-2.89,1.86-5.8,3.7-8.83,5.41.39-1.82,1.47-3.15,2.76-4.3.82-.73,1.76-1.32,2.59-2.03.26-.22.55-.73.47-1-.98-3.23.91-5.41,2.84-7.44,4.77-5.04,9.74-9.9,14.47-14.97,2.08-2.23,3.8-4.79,5.67-7.21.12-.16.16-.4.36-.92-1.22,0-2.26.06-3.3-.03Zm-168.83,118.62c.05-.05.11-.1.16-.15,0,.11-.01.21-.02.32-.05-.06-.09-.12-.14-.18Z"/>
    </g>
    <path class="cls-1" d="m134.88,17.35c-.11-.13-.23-.27-.35-.4-2.22,1.83-4.43,3.66-6.65,5.49.09.11.18.22.27.33,2.86-1.03,4.83-3.17,6.73-5.42Z"/>
    <path class="cls-1" d="m257.68,142.74c-1.44,1.66-1.37,2.5.25,3.52.27.17.81.09,1.13-.06.15-.07.22-.66.1-.9-.43-.86-.96-1.67-1.48-2.56Z"/>
    <path class="cls-1" d="m141.19,11.71c-1.99.59-3.17,2.11-4.3,3.7,1.97-.62,3.19-2.1,4.3-3.7Z"/>
    <path class="cls-1" d="m125.91,24.58c-.08-.09-.16-.19-.23-.29-.69.51-1.38,1.01-2.14,1.57,1.04.53,1.78.07,2.37-1.28Z"/>
    <path class="cls-1" d="m252.47,160.96c.14,0,.27,0,.41,0v-2.03c-.14,0-.27,0-.41-.01v2.04Z"/>
  </g>
  <g>
    <g class="cls-5">
      <image width="864" height="864" transform="translate(34.2 28.69) scale(.23)" xlink:href="F:\Personal\Memories\gray.png"/>
    </g>
    <rect class="cls-4" x="35.5" y="30.01" width="198" height="197" rx="35.5" ry="35.5"/>
  </g>
</svg>