<svg width="31" height="22" viewBox="0 0 31 22" fill="none" xmlns="http://www.w3.org/2000/svg">
<path d="M22.1428 14.8515C22.1428 15.1778 22.0454 15.4967 21.8629 15.768C21.6805 16.0393 21.4211 16.2508 21.1176 16.3756C20.8142 16.5005 20.4803 16.5331 20.1581 16.4695C19.836 16.4058 19.5401 16.2487 19.3078 16.018C19.0756 15.7873 18.9174 15.4934 18.8533 15.1734C18.7892 14.8534 18.8221 14.5217 18.9478 14.2202C19.0735 13.9188 19.2864 13.6612 19.5595 13.4799C19.8326 13.2986 20.1536 13.2019 20.4821 13.2019C20.9226 13.2019 21.345 13.3757 21.6564 13.6851C21.9678 13.9944 22.1428 14.414 22.1428 14.8515ZM10.5178 13.2019C10.1894 13.2019 9.8683 13.2986 9.5952 13.4799C9.3221 13.6612 9.10924 13.9188 8.98354 14.2202C8.85785 14.5217 8.82496 14.8534 8.88904 15.1734C8.95312 15.4934 9.11129 15.7873 9.34354 16.018C9.5758 16.2487 9.87171 16.4058 10.1939 16.4695C10.516 16.5331 10.8499 16.5005 11.1534 16.3756C11.4568 16.2508 11.7162 16.0393 11.8987 15.768C12.0812 15.4967 12.1786 15.1778 12.1786 14.8515C12.1786 14.414 12.0036 13.9944 11.6921 13.6851C11.3807 13.3757 10.9583 13.2019 10.5178 13.2019ZM30.9999 16.5012V19.8005C30.9999 20.3838 30.7667 20.9433 30.3514 21.3558C29.9361 21.7683 29.3729 22 28.7857 22H2.21429C1.62702 22 1.06381 21.7683 0.648555 21.3558C0.233296 20.9433 6.69935e-06 20.3838 6.69935e-06 19.8005V16.6565C-0.00196542 14.5365 0.431488 12.4383 1.27385 10.4904C2.11622 8.54246 3.34979 6.7857 4.8991 5.32759L1.43099 1.88258C1.22324 1.67622 1.10653 1.39634 1.10653 1.1045C1.10653 0.812661 1.22324 0.532776 1.43099 0.326416C1.63873 0.120056 1.92049 0.00412394 2.21429 0.00412394C2.50808 0.00412394 2.78985 0.120056 2.99759 0.326416L6.61794 3.92264C9.21743 2.09356 12.3234 1.10904 15.5089 1.10436C18.6945 1.09968 21.8034 2.07508 24.4083 3.89652L28.0065 0.322292C28.2143 0.115932 28.496 -5.75281e-09 28.7898 0C29.0836 5.75281e-09 29.3654 0.115932 29.5731 0.322292C29.7809 0.528652 29.8976 0.808537 29.8976 1.10037C29.8976 1.39221 29.7809 1.6721 29.5731 1.87846L26.1313 5.29735C26.2351 5.39495 26.3389 5.49393 26.4413 5.59566C27.8908 7.0226 29.0403 8.72156 29.8229 10.5938C30.6055 12.466 31.0056 14.474 30.9999 16.5012ZM28.7857 16.5012C28.7857 13.0011 27.3859 9.64433 24.8944 7.16938C22.4028 4.69444 19.0236 3.30402 15.5 3.30402H15.4529C8.15271 3.32877 2.21429 9.31836 2.21429 16.6565V19.8005H28.7857V16.5012Z" fill="#073D55"/>
</svg>
