<svg width="32" height="27" viewBox="0 0 32 27" fill="none" xmlns="http://www.w3.org/2000/svg">
<path d="M19.5738 0.0441241C19.8887 0.129012 20.1574 0.336591 20.3206 0.621211C20.4839 0.90583 20.5283 1.24419 20.4443 1.56187L13.9311 26.0805C13.8466 26.3984 13.6403 26.6694 13.3576 26.8339C13.0749 26.9984 12.739 27.0429 12.4238 26.9576C12.1086 26.8723 11.8398 26.6642 11.6767 26.3791C11.5137 26.0941 11.4695 25.7553 11.5541 25.4374L18.0689 0.918727C18.1107 0.761409 18.1829 0.613946 18.2812 0.484762C18.3796 0.355577 18.5022 0.247203 18.6421 0.165831C18.782 0.0844579 18.9365 0.0316811 19.0966 0.0105146C19.2567 -0.0106518 19.4194 0.000207077 19.5754 0.0424709M23.2836 5.09004C23.5017 4.84564 23.8071 4.69858 24.1326 4.68122C24.4582 4.66386 24.7773 4.77761 25.0197 4.99746L27.8672 7.58324C29.0754 8.67773 30.0754 9.58706 30.7639 10.4104C31.4852 11.2784 32 12.2092 32 13.3599C32 14.509 31.4869 15.4398 30.7639 16.3061C30.0754 17.1311 29.0754 18.0405 27.8672 19.135L25.0197 21.7207C24.7773 21.9409 24.4581 22.0549 24.1324 22.0376C23.8067 22.0204 23.501 21.8734 23.2828 21.629C23.0645 21.3845 22.9515 21.0626 22.9686 20.7341C22.9856 20.4056 23.1314 20.0974 23.3738 19.8773L26.1557 17.3527C27.4475 16.1805 28.318 15.3852 28.882 14.7107C29.423 14.0609 29.541 13.6823 29.541 13.3583C29.541 13.0359 29.423 12.6573 28.882 12.0075C28.318 11.3313 27.4475 10.5361 26.1557 9.36551L23.3738 6.8409C23.2535 6.73198 23.1558 6.60022 23.0861 6.45315C23.0164 6.30609 22.9761 6.14661 22.9676 5.98384C22.9591 5.82107 22.9824 5.6582 23.0364 5.50455C23.0903 5.3509 23.1738 5.20948 23.282 5.08839M8.62623 6.8409C8.86862 6.62078 9.01438 6.31257 9.03144 5.98406C9.04851 5.65556 8.93547 5.33367 8.71721 5.08921C8.49895 4.84476 8.19334 4.69776 7.86761 4.68055C7.54189 4.66334 7.22272 4.77734 6.98033 4.99746L4.13279 7.58324C2.92459 8.67773 1.92459 9.58706 1.23607 10.4104C0.514754 11.2784 0 12.2092 0 13.3599C0 14.509 0.513115 15.4398 1.23607 16.3061C1.92459 17.1311 2.92459 18.0405 4.13279 19.135L6.98033 21.7207C7.22272 21.9409 7.54189 22.0549 7.86761 22.0376C8.19334 22.0204 8.49895 21.8734 8.71721 21.629C8.93547 21.3845 9.04851 21.0626 9.03144 20.7341C9.01438 20.4056 8.86862 20.0974 8.62623 19.8773L5.84426 17.3527C4.55246 16.1805 3.68197 15.3852 3.11803 14.7107C2.57705 14.0609 2.45902 13.6823 2.45902 13.3583C2.45902 13.0359 2.57705 12.6573 3.11803 12.0075C3.68197 11.3313 4.55246 10.5361 5.84426 9.36551L8.62623 6.8409Z" fill="#073D55"/>
</svg>
