<svg width="31" height="30" viewBox="0 0 31 30" fill="none" xmlns="http://www.w3.org/2000/svg">
<path d="M26.5778 21.4191C25.7978 21.423 25.0334 21.6328 24.3652 22.0263L20.1888 17.9417C20.7838 17.0685 21.1013 16.0426 21.1013 14.9933C21.1013 13.9441 20.7838 12.9182 20.1888 12.045L22.9786 9.3173C23.6843 9.64966 24.4876 9.72708 25.2461 9.53582C26.0046 9.34456 26.6694 8.89698 27.1227 8.27236C27.576 7.64774 27.7886 6.8864 27.7228 6.12321C27.6569 5.36002 27.317 4.64424 26.7631 4.10267C26.2092 3.5611 25.4771 3.22869 24.6965 3.16433C23.916 3.09997 23.1373 3.30782 22.4985 3.75105C21.8596 4.19428 21.4019 4.84428 21.2063 5.58592C21.0107 6.32755 21.0898 7.11294 21.4298 7.80297L18.64 10.5307C17.7469 9.94887 16.6977 9.63843 15.6245 9.63843C14.5514 9.63843 13.5022 9.94887 12.6091 10.5307L8.43153 6.44607C8.83377 5.79309 9.04833 5.04608 9.05258 4.28382C9.05258 3.43656 8.79562 2.60833 8.31419 1.90386C7.83277 1.19939 7.1485 0.650319 6.34792 0.326088C5.54734 0.0018561 4.66641 -0.0829777 3.81652 0.0823142C2.96663 0.247606 2.18596 0.6556 1.57322 1.2547C0.960483 1.8538 0.543204 2.61711 0.37415 3.44808C0.205097 4.27906 0.291861 5.14039 0.623472 5.92316C0.955082 6.70592 1.51665 7.37496 2.23715 7.84568C2.95765 8.31639 3.80473 8.56763 4.67127 8.56763C5.45125 8.56367 6.21567 8.35387 6.88383 7.9604L11.0603 12.045C10.4653 12.9182 10.1477 13.9441 10.1477 14.9933C10.1477 16.0426 10.4653 17.0685 11.0603 17.9417L6.88273 22.0263C6.21487 21.6331 5.45087 21.4233 4.67127 21.4191C3.80473 21.4191 2.95765 21.6703 2.23715 22.141C1.51665 22.6117 0.955082 23.2808 0.623472 24.0635C0.291861 24.8463 0.205097 25.7076 0.37415 26.5386C0.543204 27.3696 0.960483 28.1329 1.57322 28.732C2.18596 29.3311 2.96663 29.7391 3.81652 29.9044C4.66641 30.0697 5.54734 29.9848 6.34792 29.6606C7.1485 29.3364 7.83277 28.7873 8.31419 28.0828C8.79562 27.3784 9.05258 26.5501 9.05258 25.7029C9.04852 24.9403 8.83396 24.1928 8.43153 23.5396L12.6091 19.456C13.1916 19.8356 13.8436 20.1018 14.5292 20.2399V23.758C13.7984 24.0107 13.1824 24.5078 12.7902 25.1615C12.398 25.8152 12.2548 26.5835 12.3859 27.3304C12.517 28.0774 12.9139 28.7551 13.5065 29.2436C14.0992 29.7321 14.8494 30 15.6245 30C16.3997 30 17.1499 29.7321 17.7425 29.2436C18.3352 28.7551 18.7321 28.0774 18.8632 27.3304C18.9943 26.5835 18.851 25.8152 18.4588 25.1615C18.0666 24.5078 17.4507 24.0107 16.7199 23.758V20.2399C17.4055 20.1018 18.0575 19.8356 18.64 19.456L22.8175 23.5406C22.4153 24.1936 22.2007 24.9406 22.1965 25.7029C22.1965 26.5501 22.4535 27.3784 22.9349 28.0828C23.4163 28.7873 24.1006 29.3364 24.9011 29.6606C25.7017 29.9848 26.5827 30.0697 27.4325 29.9044C28.2824 29.7391 29.0631 29.3311 29.6758 28.732C30.2886 28.1329 30.7059 27.3696 30.8749 26.5386C31.044 25.7076 30.9572 24.8463 30.6256 24.0635C30.294 23.2808 29.7324 22.6117 29.0119 22.141C28.2914 21.6703 27.4443 21.4191 26.5778 21.4191ZM15.6245 11.7805C16.2744 11.7805 16.9097 11.9689 17.4501 12.322C17.9905 12.675 18.4117 13.1768 18.6604 13.7638C18.9091 14.3509 18.9742 14.9969 18.8474 15.6201C18.7206 16.2434 18.4076 16.8159 17.9481 17.2652C17.4885 17.7145 16.903 18.0205 16.2656 18.1445C15.6282 18.2684 14.9675 18.2048 14.367 17.9616C13.7666 17.7185 13.2534 17.3067 12.8923 16.7783C12.5313 16.25 12.3386 15.6288 12.3386 14.9933C12.3394 14.1415 12.6859 13.3248 13.302 12.7225C13.918 12.1201 14.7533 11.7813 15.6245 11.7805ZM2.48062 4.28382C2.48062 3.86019 2.6091 3.44607 2.84981 3.09384C3.09052 2.7416 3.43265 2.46707 3.83294 2.30495C4.23323 2.14284 4.6737 2.10042 5.09865 2.18306C5.52359 2.26571 5.91393 2.46971 6.2203 2.76926C6.52666 3.06881 6.7353 3.45046 6.81983 3.86595C6.90436 4.28144 6.86098 4.71211 6.69517 5.10349C6.52936 5.49487 6.24858 5.82939 5.88833 6.06475C5.52808 6.3001 5.10454 6.42572 4.67127 6.42572C4.09045 6.42515 3.53359 6.19931 3.12289 5.79775C2.71218 5.39618 2.4812 4.85171 2.48062 4.28382ZM4.67127 27.8448C4.238 27.8448 3.81446 27.7192 3.45421 27.4838C3.09396 27.2485 2.81318 26.9139 2.64737 26.5226C2.48157 26.1312 2.43818 25.7005 2.52271 25.285C2.60724 24.8695 2.81588 24.4879 3.12224 24.1883C3.42861 23.8888 3.81895 23.6848 4.2439 23.6021C4.66884 23.5195 5.10931 23.5619 5.5096 23.724C5.90989 23.8861 6.25202 24.1607 6.49273 24.5129C6.73344 24.8651 6.86192 25.2793 6.86192 25.7029C6.86134 26.2708 6.63036 26.8152 6.21966 27.2168C5.80895 27.6184 5.25209 27.8442 4.67127 27.8448ZM26.5778 27.8448C26.1445 27.8448 25.721 27.7192 25.3607 27.4838C25.0005 27.2485 24.7197 26.9139 24.5539 26.5226C24.3881 26.1312 24.3447 25.7005 24.4292 25.285C24.5138 24.8695 24.7224 24.4879 25.0288 24.1883C25.3351 23.8888 25.7255 23.6848 26.1504 23.6021C26.5754 23.5195 27.0158 23.5619 27.4161 23.724C27.8164 23.8861 28.1585 24.1607 28.3993 24.5129C28.64 24.8651 28.7685 25.2793 28.7685 25.7029C28.7676 26.2707 28.5365 26.815 28.1259 27.2165C27.7152 27.618 27.1585 27.8439 26.5778 27.8448Z" fill="#073D55"/>
</svg>
