<svg width="87" height="17" viewBox="0 0 87 17" fill="none" xmlns="http://www.w3.org/2000/svg">
<path d="M59.8421 7.11464C59.9898 7.02545 60.1336 6.92816 60.2692 6.82275V16.6231H55.2651V6.85519C55.9838 7.40044 56.838 7.68421 57.7672 7.68421C58.5101 7.68421 59.2105 7.49368 59.8421 7.11464Z" fill="#073D55"/>
<path d="M28.5648 16.6231V0.885812H33.6032V3.77422H33.4959C33.8239 2.8175 34.3765 2.06347 35.1538 1.51011C35.9312 0.956756 36.8583 0.681091 37.9372 0.681091C39.0283 0.681091 39.9635 0.960809 40.7409 1.52227C41.5182 2.08171 42.0121 2.83371 42.2247 3.77625H42.3887C42.6822 2.8398 43.255 2.09185 44.1073 1.52633C44.9595 0.962837 45.9656 0.681091 47.1255 0.681091C48.6133 0.681091 49.8198 1.15743 50.7469 2.11009C51.6741 3.06276 52.1376 4.37014 52.1376 6.02819V16.6231H47.1336V7.17747C47.1336 6.39304 46.9332 5.79306 46.5303 5.37956C46.1275 4.96607 45.6052 4.75932 44.9656 4.75932C44.2773 4.75932 43.7368 4.98228 43.3441 5.43024C42.9514 5.87819 42.755 6.47615 42.755 7.22815V16.6231H37.9453V7.12477C37.9453 6.39304 37.7469 5.81739 37.3522 5.39375C36.9575 4.97012 36.4352 4.75932 35.7874 4.75932C35.3502 4.75932 34.9656 4.86269 34.6316 5.07147C34.2976 5.28025 34.0364 5.57618 33.8482 5.95725C33.6599 6.34034 33.5668 6.79032 33.5668 7.30922V16.6231H28.5648Z" fill="#073D55"/>
<path d="M85.6093 2.11009C84.6822 1.15743 83.4737 0.681091 81.9879 0.681091C80.8279 0.681091 79.8219 0.962837 78.9696 1.52633C78.1174 2.08982 77.5445 2.8398 77.251 3.77625H77.087C76.8745 2.83371 76.3806 2.08171 75.6032 1.52227C74.8259 0.962836 73.8907 0.681091 72.7996 0.681091C71.7227 0.681091 70.7935 0.958785 70.0162 1.51214C69.249 2.05739 68.7004 2.80128 68.3725 3.73976V0.887841H63.4271V16.6251H68.4312V7.31125C68.4312 6.79235 68.5243 6.34237 68.7125 5.95927C68.9008 5.57618 69.1599 5.28227 69.4939 5.07349C69.8279 4.86472 70.2146 4.76135 70.6498 4.76135C71.2976 4.76135 71.8198 4.97417 72.2146 5.39578C72.6113 5.81941 72.8077 6.3971 72.8077 7.1268V16.6251H77.6174V7.23017C77.6174 6.47817 77.8138 5.88022 78.2065 5.43227C78.5992 4.98431 79.1397 4.76135 79.8279 4.76135C80.4696 4.76135 80.9919 4.96809 81.3927 5.38159C81.7955 5.79509 81.996 6.39507 81.996 7.1795V16.6271H86.0162H87V11.9307V6.03427C87 4.37014 86.5364 3.06276 85.6093 2.11009Z" fill="#073D55"/>
<path d="M60.4271 3.51889C60.4231 3.83104 60.3704 4.12292 60.2692 4.39859C60.2105 4.55872 60.1356 4.71276 60.0445 4.86073C59.7955 5.2641 59.4716 5.58435 59.0729 5.82353C58.6741 6.06271 58.2389 6.18231 57.7672 6.18231C57.0304 6.18231 56.4008 5.92286 55.8785 5.40396C55.5972 5.12424 55.3927 4.81208 55.2652 4.4675C55.1559 4.17359 55.1032 3.85942 55.1073 3.51889C55.1032 3.18647 55.1559 2.87635 55.2652 2.58649C55.3927 2.24799 55.5972 1.93787 55.8785 1.66018C56.4008 1.14533 57.0304 0.887909 57.7672 0.887909C58.4615 0.887909 59.0789 1.14533 59.6133 1.66018C59.915 1.95206 60.1336 2.27637 60.2672 2.63514C60.3725 2.90878 60.4251 3.20471 60.4271 3.51889Z" fill="#0E88DB"/>
<path d="M60.2693 2.63304C60.1357 2.27427 59.917 1.94995 59.6154 1.65807C59.079 1.14323 58.4636 0.885803 57.7693 0.885803C57.0324 0.885803 56.4029 1.14323 55.8806 1.65807C55.5992 1.93779 55.3948 2.24589 55.2672 2.58439C55.1579 2.87424 55.1053 3.18437 55.1093 3.51679C55.1053 3.85529 55.1579 4.17149 55.2672 4.4654C55.3948 4.80998 55.5992 5.12213 55.8806 5.40185C56.4029 5.92075 57.0324 6.1802 57.7693 6.1802C58.2389 6.1802 58.6741 6.06061 59.0749 5.82143C59.4737 5.58225 59.7976 5.25997 60.0466 4.85863C60.1377 4.71066 60.2126 4.55661 60.2713 4.39648C60.3725 4.12082 60.4251 3.82894 60.4292 3.51679C60.4251 3.20464 60.3725 2.9087 60.2693 2.63304Z" fill="#00D8FF"/>
<path d="M7.54049 13.3779C7.47571 13.384 7.41296 13.386 7.3502 13.386C7.12348 13.386 6.92915 13.3515 6.76518 13.2846C6.60324 13.2177 6.47976 13.1042 6.39474 12.9441C6.30972 12.784 6.26923 12.6664 6.26923 12.4049V6.543H8.87045V3.02421H6.26923V0H2.19433C2.19433 0 2.07895 1.46751 1.58907 3.17015C1.1498 4.31943 0 4.7755 0 4.7755V6.5734H2.00607V12.8772C1.99393 13.7853 2.17611 14.5393 2.55061 15.1393C2.9251 15.7393 3.46964 16.1791 4.18016 16.4609C4.7753 16.698 5.47166 16.8176 6.26923 16.8237H9.59514V13.3779H7.54049Z" fill="#073D55"/>
<path d="M24.7429 3.43571C24.3988 2.78709 23.913 2.23981 23.2854 1.79185C22.6579 1.3439 21.921 1.00337 21.0749 0.766216C20.2308 0.531089 19.3057 0.411499 18.3016 0.411499C16.8968 0.411499 15.6943 0.628384 14.6943 1.06215C13.6943 1.49592 12.9109 2.08981 12.3401 2.84384C11.8097 3.54719 11.4696 4.3377 11.3158 5.21335L11.3036 5.2174L11.1579 6.53897L15.8785 6.17818L15.913 5.74036C15.9555 5.20524 16.2186 4.70661 16.6538 4.39243C16.6579 4.3904 16.6619 4.38635 16.664 4.38433C17.0668 4.09853 17.5992 3.95461 18.2611 3.95461C18.8745 3.95461 19.3623 4.09853 19.7227 4.38433C20.085 4.67013 20.2652 5.07754 20.2652 5.60252V5.6532C20.2652 5.97345 20.1397 6.22074 19.8907 6.39709C19.6417 6.5714 19.2449 6.70518 18.7004 6.7964C18.1538 6.88761 17.4352 6.9768 16.5405 7.05788C15.7429 7.12679 14.9919 7.25854 14.2895 7.45313C13.587 7.64772 12.9656 7.93352 12.4271 8.3085C11.8887 8.68349 11.4656 9.17198 11.1579 9.77399C10.8502 10.376 10.6964 11.1118 10.6964 11.9874C10.6964 13.0252 10.919 13.8887 11.3664 14.5758C11.8138 15.2609 12.4231 15.7738 13.1984 16.1123C13.9737 16.4508 14.8623 16.619 15.8644 16.619H19.2713V13.3394H17.4109C16.8381 13.3394 16.3664 13.2036 15.9939 12.93C15.6235 12.6563 15.4372 12.2611 15.4372 11.7401C15.4372 11.3996 15.5243 11.1037 15.6984 10.8544C15.8725 10.605 16.1235 10.4023 16.4555 10.2442C16.7874 10.0861 17.1862 9.9706 17.6579 9.89561C17.8887 9.86115 18.1316 9.82263 18.3846 9.7821C18.6376 9.74156 18.8826 9.69291 19.1215 9.63818C19.3603 9.58346 19.581 9.52467 19.7814 9.46387C19.9838 9.40103 20.1559 9.33414 20.2976 9.25914L20.5526 9.08077V16.617H25.2591V5.65522C25.2611 4.8262 25.087 4.08434 24.7429 3.43571Z" fill="#073D55"/>
</svg>
